# xmcd
#
# Track frame offsets: 
#        150
#        19302
#        35001
#        52168
#        68918
#        85791
#        102791
#        116558
#        137376
#        155340
#        175447
#        190921
#        210039
#        240466
#
# Disc length: 3604 seconds
#
# Revision: 0
# Processed by: cddbd v1.5.2PL0 Copyright (c) Steve Scherf et al.
# Submitted via: ExactAudioCopy v1.0b1
#
DISCID=b60e120e
DTITLE=David Hallyday - Un nouveau monde
DYEAR=2010
DGENRE=Country
TTITLE0=Le coeur qui boîte
TTITLE1=On se fait peur
TTITLE2=Welcome to nowhere
TTITLE3=J'ai vu des rivières
TTITLE4=Comme au premier jour
TTITLE5=N.Y.C.
TTITLE6=Sur la route
TTITLE7=Le poids d'être un homme
TTITLE8=Rien d'autre que nous
TTITLE9=ma dernière scéance
TTITLE10=Dans nos mains
TTITLE11=High
TTITLE12=Tu ne m'as pas laissé le temps
TTITLE13=void
EXTD=
EXTT0=
EXTT1=
EXTT2=
EXTT3=
EXTT4=
EXTT5=
EXTT6=
EXTT7=
EXTT8=
EXTT9=
EXTT10=
EXTT11=
EXTT12=
EXTT13=
PLAYORDER=
